<svg width="26" height="26" viewBox="0 0 26 26" fill="none" xmlns="http://www.w3.org/2000/svg">
<path d="M13 0C5.83136 0 0 5.83136 0 13C0 20.1686 5.83136 26 13 26C20.1686 26 26 20.1676 26 13C26 5.83238 20.1686 0 13 0ZM13 23.9861C6.94307 23.9861 2.01393 19.0579 2.01393 13C2.01393 6.94205 6.94307 2.01393 13 2.01393C19.0579 2.01393 23.9861 6.94205 23.9861 13C23.9861 19.0579 19.0569 23.9861 13 23.9861Z" fill="#5282F8"/>
<path d="M18.9643 8.47884C18.5545 8.10626 17.9171 8.13546 17.5425 8.5473L11.3999 15.3112L8.43238 12.2943C8.04065 11.8975 7.40426 11.8915 7.00852 12.2822C6.61177 12.6719 6.60573 13.3093 6.99644 13.7061L10.7111 17.4822C10.9015 17.6755 11.1592 17.7833 11.4291 17.7833C11.4351 17.7833 11.4422 17.7833 11.4482 17.7843C11.7262 17.7783 11.988 17.6594 12.1743 17.454L19.0327 9.90173C19.4064 9.48883 19.3762 8.85244 18.9643 8.47884Z" fill="#5282F8"/>
</svg>
