<svg width="42" height="42" viewBox="0 0 42 42" fill="none" xmlns="http://www.w3.org/2000/svg">
<g clip-path="url(#clip0)">
<path d="M39.2073 21.5439C39.0383 21.1981 39.0383 20.8016 39.2073 20.4559L40.7737 17.2514C41.6459 15.4671 40.9549 13.3405 39.2006 12.4097L36.0498 10.7379C35.7098 10.5576 35.4768 10.2367 35.4102 9.85779L34.794 6.3445C34.4509 4.38839 32.6415 3.07393 30.6754 3.3521L27.1437 3.85167C26.7626 3.90548 26.3856 3.78292 26.1091 3.51542L23.5455 1.03547C22.1181 -0.34544 19.882 -0.345522 18.4546 1.03547L15.891 3.51567C15.6144 3.78325 15.2375 3.90556 14.8564 3.85191L11.3247 3.35234C9.358 3.07401 7.54922 4.38864 7.20608 6.34474L6.58987 9.85788C6.52334 10.2369 6.29029 10.5577 5.95044 10.7381L2.79963 12.4099C1.04532 13.3406 0.354296 15.4674 1.22645 17.2516L2.79283 20.4561C2.96181 20.8018 2.96181 21.1984 2.79283 21.5441L1.22637 24.7485C0.354214 26.5328 1.04524 28.6594 2.79955 29.5902L5.95036 31.262C6.29029 31.4423 6.52334 31.7632 6.58987 32.1421L7.20608 35.6554C7.51846 37.4361 9.04538 38.685 10.8003 38.6848C10.9731 38.6848 11.1485 38.6727 11.3248 38.6477L14.8564 38.1482C15.2373 38.0941 15.6145 38.2169 15.8911 38.4844L18.4546 40.9644C19.1685 41.6549 20.0841 42.0001 21.0001 42C21.9158 41.9999 22.832 41.6547 23.5455 40.9644L26.1091 38.4844C26.3857 38.2169 26.7627 38.0947 27.1437 38.1482L30.6754 38.6477C32.6424 38.926 34.4509 37.6114 34.794 35.6553L35.4103 32.1422C35.4768 31.7632 35.7099 31.4424 36.0498 31.262L39.2006 29.5902C40.9549 28.6595 41.6459 26.5327 40.7737 24.7484L39.2073 21.5439ZM38.0652 27.4503L34.9144 29.1221C33.9098 29.6552 33.2208 30.6033 33.0244 31.7235L32.4082 35.2367C32.2921 35.8985 31.6802 36.3431 31.0147 36.2491L27.483 35.7496C26.3567 35.59 25.2423 35.9525 24.4248 36.7432L21.8612 39.2231C21.3784 39.6902 20.6218 39.6902 20.1388 39.2231L17.5753 36.7431C16.8844 36.0748 15.9812 35.7127 15.0384 35.7127C14.8656 35.7127 14.6915 35.7248 14.5171 35.7495L10.9854 36.2491C10.3205 36.3431 9.7081 35.8985 9.59195 35.2366L8.97565 31.7233C8.77911 30.6031 8.09021 29.6549 7.08558 29.122L3.93478 27.4502C3.3412 27.1353 3.10741 26.4158 3.40248 25.8121L4.96894 22.6076C5.46834 21.5858 5.46834 20.4139 4.96894 19.3921L3.40248 16.1876C3.10741 15.584 3.3412 14.8645 3.93478 14.5495L7.08558 12.8778C8.09013 12.3446 8.77911 11.3965 8.97557 10.2763L9.59178 6.7631C9.70794 6.10128 10.3197 5.65667 10.9852 5.75068L14.5169 6.25024C15.6428 6.40963 16.7577 6.0473 17.5751 5.25661L20.1387 2.77665C20.6216 2.30957 21.3781 2.30957 21.8611 2.77665L24.4247 5.25661C25.2421 6.04738 26.3568 6.40963 27.4829 6.25024L31.0145 5.75068C31.6796 5.65659 32.2919 6.10128 32.408 6.7631L33.0242 10.2764C33.2208 11.3966 33.9096 12.3448 34.9143 12.8778L38.0651 14.5495C38.6587 14.8645 38.8924 15.584 38.5974 16.1876L37.0309 19.3921C36.5315 20.4138 36.5315 21.5858 37.0309 22.6075L38.5974 25.812C38.8925 26.4158 38.6587 27.1354 38.0652 27.4503Z" fill="#5282F8"/>
<path d="M29.8499 12.1502C29.3769 11.6772 28.61 11.6772 28.137 12.1502L12.1501 28.1371C11.6771 28.6101 11.6771 29.377 12.1501 29.85C12.3866 30.0865 12.6966 30.2048 13.0065 30.2048C13.3164 30.2048 13.6265 30.0866 13.8629 29.85L29.8498 13.8631C30.3229 13.39 30.3229 12.6232 29.8499 12.1502Z" fill="#5282F8"/>
<path d="M16.1552 10.0994C13.7065 10.0994 11.7142 12.0916 11.7142 14.5404C11.7142 16.9892 13.7065 18.9815 16.1552 18.9815C18.604 18.9815 20.5963 16.9892 20.5963 14.5404C20.5963 12.0916 18.604 10.0994 16.1552 10.0994ZM16.1552 16.559C15.0422 16.559 14.1366 15.6535 14.1366 14.5403C14.1366 13.4273 15.0422 12.5217 16.1552 12.5217C17.2683 12.5217 18.1739 13.4273 18.1739 14.5403C18.1739 15.6535 17.2683 16.559 16.1552 16.559Z" fill="#5282F8"/>
<path d="M25.8447 23.0188C23.3959 23.0188 21.4036 25.0111 21.4036 27.4599C21.4036 29.9086 23.3959 31.9009 25.8447 31.9009C28.2935 31.9009 30.2858 29.9086 30.2858 27.4599C30.2858 25.0111 28.2935 23.0188 25.8447 23.0188ZM25.8447 29.4785C24.7316 29.4785 23.826 28.5729 23.826 27.4599C23.826 26.3468 24.7315 25.4413 25.8447 25.4413C26.9578 25.4413 27.8633 26.3468 27.8633 27.4599C27.8633 28.5729 26.9578 29.4785 25.8447 29.4785Z" fill="#5282F8"/>
</g>
<defs>
<clipPath id="clip0">
<rect width="42" height="42" fill="white"/>
</clipPath>
</defs>
</svg>
