<svg width="11" height="19" viewBox="0 0 11 19" fill="none" xmlns="http://www.w3.org/2000/svg">
<path fill-rule="evenodd" clip-rule="evenodd" d="M9.18949 3.36809L9.62642 0.676193C8.50709 0.602171 7.38366 0.610358 6.2656 0.700672C5.48584 0.801447 4.77307 1.18163 4.26729 1.76654C3.78992 2.39371 3.55354 3.16326 3.59924 3.94181V7.4657L0.798523 7.44533V10.1739L3.59924 10.1834V18.3407L6.41817 18.3339V10.1766H9.74266L10.1768 7.44803H6.41817C6.41817 7.44803 6.41817 4.34148 6.41817 4.03695C6.43053 3.93161 6.46536 3.82996 6.52039 3.73839C6.57543 3.64681 6.64954 3.56736 6.73792 3.50509C6.8263 3.44281 6.927 3.39905 7.03373 3.37664C7.14047 3.35422 7.25085 3.35361 7.35784 3.37485C7.9768 3.3667 9.18949 3.36809 9.18949 3.36809Z" fill="#5A72B0"/>
</svg>
