<svg width="45" height="45" viewBox="0 0 45 45" fill="none" xmlns="http://www.w3.org/2000/svg">
<g clip-path="url(#clip0)">
<path d="M39.5159 15.6268L35.1048 14.0213C36.6997 12.7034 37.3807 10.6131 36.8924 8.6268C35.9329 4.72419 31.1746 3.24271 28.1684 5.90026L25.1228 8.59252L24.5203 4.55483C23.9246 0.579622 19.3224 -1.33288 16.0848 1.03577C14.4659 2.2201 13.6048 4.26171 13.9866 6.3347L9.82784 4.82105C7.78175 4.07617 5.51074 5.13508 4.76587 7.18144L2.96499 12.1294C2.71635 12.8126 3.06861 13.5681 3.75187 13.8167C4.02899 13.9175 24.0319 21.198 24.3257 21.3048C23.4932 21.3048 5.26192 21.3048 4.45983 21.3048C3.7328 21.3048 3.14341 21.8942 3.14341 22.6213V41.0509C3.14341 43.2285 4.91502 45.0001 7.0926 45.0001H17.6238H22.8894H33.4207C35.5982 45.0001 37.3699 43.2285 37.3699 41.0509V26.0526L38.3882 26.4233C39.0682 26.671 39.8257 26.3225 40.0755 25.6365L41.8764 20.6886C42.621 18.6422 41.5622 16.3715 39.5159 15.6268ZM16.3073 42.3673H7.09251C6.36662 42.3673 5.77608 41.7768 5.77608 41.0509V23.9377H16.3073V42.3673ZM21.5729 42.3673H18.9402V23.9377H21.5729V42.3673ZM29.9121 7.87287C31.4392 6.52279 33.85 7.28014 34.3357 9.25548C34.8536 11.3616 32.8179 13.1878 30.7804 12.4474C29.0474 11.8166 28.2353 11.521 26.4999 10.8894L29.9121 7.87287ZM17.6392 3.16079C19.2845 1.95722 21.6151 2.93386 21.9167 4.94524L22.5917 9.46677C22.1058 9.28993 18.7893 8.08276 18.3115 7.90891C16.2738 7.16685 15.889 4.44101 17.6392 3.16079ZM18.2594 16.2952L5.88929 11.7928L7.23999 8.08188C7.48828 7.39976 8.24528 7.04697 8.92731 7.29508C10.3116 7.79887 19.6334 11.1917 20.0602 11.3471L18.2594 16.2952ZM23.2074 18.0962L20.7334 17.1957L22.5344 12.2477L25.0084 13.1482L23.2074 18.0962ZM34.7369 41.0509C34.7369 41.7768 34.1464 42.3673 33.4205 42.3673H24.2058V23.9377H31.5592L34.737 25.0943V41.0509H34.7369ZM39.4021 19.7879L38.0515 23.4989L25.6815 18.9966L27.4824 14.0486L38.6154 18.1006C39.2976 18.3489 39.6504 19.1059 39.4021 19.7879Z" fill="#5282F8"/>
</g>
<defs>
<clipPath id="clip0">
<rect width="45" height="45" fill="white"/>
</clipPath>
</defs>
</svg>
