<svg width="30" height="29" viewBox="0 0 30 29" fill="none" xmlns="http://www.w3.org/2000/svg">
<path d="M14.7118 0C6.70379 0 0.211786 6.492 0.211786 14.5C0.211786 22.508 6.70379 29 14.7118 29C22.7198 29 29.2118 22.508 29.2118 14.5C29.2118 6.492 22.7198 0 14.7118 0ZM2.71179 14.5C2.71179 7.8835 8.09529 2.5 14.7118 2.5C17.6348 2.5 20.3158 3.5515 22.3993 5.2945L5.50629 22.1875C3.76329 20.104 2.71179 17.4225 2.71179 14.5ZM14.7118 26.5C11.9168 26.5 9.34379 25.5365 7.30179 23.928L24.1398 7.0895C25.7483 9.132 26.7118 11.705 26.7118 14.5C26.7118 21.1165 21.3283 26.5 14.7118 26.5Z" fill="white"/>
</svg>
