<svg width="29" height="29" viewBox="0 0 29 29" fill="none" xmlns="http://www.w3.org/2000/svg">
<path d="M14.5 0C6.492 0 0 6.492 0 14.5C0 22.508 6.492 29 14.5 29C22.508 29 29 22.508 29 14.5C29 6.492 22.508 0 14.5 0ZM2.5 14.5C2.5 7.8835 7.8835 2.5 14.5 2.5C17.423 2.5 20.104 3.5515 22.1875 5.2945L5.2945 22.1875C3.5515 20.104 2.5 17.4225 2.5 14.5ZM14.5 26.5C11.705 26.5 9.132 25.5365 7.09 23.928L23.928 7.0895C25.5365 9.132 26.5 11.705 26.5 14.5C26.5 21.1165 21.1165 26.5 14.5 26.5Z" fill="#EE3129"/>
</svg>
