<svg width="206" height="44" viewBox="0 0 206 44" fill="none" xmlns="http://www.w3.org/2000/svg">
<path d="M76.986 9.784H83.102V17H81.1L80.704 16.23C79.516 16.9487 78.1813 17.308 76.7 17.308C74.764 17.308 73.1433 16.7287 71.838 15.57C70.5327 14.3967 69.88 12.8493 69.88 10.928C69.88 9.00667 70.5253 7.46667 71.816 6.308C73.1213 5.13467 74.7493 4.548 76.7 4.548C78.1373 4.548 79.3547 4.812 80.352 5.34C81.364 5.868 82.2293 6.682 82.948 7.782L80.374 9.234C79.89 8.58867 79.384 8.14133 78.856 7.892C78.3427 7.628 77.6167 7.496 76.678 7.496C75.578 7.496 74.7053 7.804 74.06 8.42C73.4147 9.02133 73.092 9.85733 73.092 10.928C73.092 12.0133 73.4073 12.8567 74.038 13.458C74.6833 14.0593 75.5633 14.36 76.678 14.36C78.0273 14.36 79.1273 14.096 79.978 13.568V12.578L76.986 12.468V9.784ZM85.3309 4.834H92.5249C94.0062 4.834 95.2235 5.28867 96.1769 6.198C97.1302 7.09267 97.6069 8.25133 97.6069 9.674C97.6069 11.4633 96.8735 12.798 95.4069 13.678L97.2549 17H93.7349L92.3489 14.404H88.5649V17H85.3309V4.834ZM88.5649 7.782V11.456H92.3929C92.9795 11.456 93.4489 11.302 93.8009 10.994C94.1675 10.686 94.3509 10.246 94.3509 9.674C94.3509 9.102 94.1675 8.64733 93.8009 8.31C93.4489 7.958 92.9795 7.782 92.3929 7.782H88.5649ZM99.2742 4.834H110.472V7.76H102.508V9.366H109.658V12.292H102.508V14.008H110.758V17H99.2742V4.834ZM112.702 4.834H123.9V7.76H115.936V9.366H123.086V12.292H115.936V14.008H124.186V17H112.702V4.834ZM126.13 4.834H129.078L135.59 12.182V4.834H138.802V17H135.832L129.32 9.652V17H126.13V4.834ZM159.864 8.002L157.356 9.432C156.886 8.74267 156.351 8.23667 155.75 7.914C155.163 7.57667 154.422 7.408 153.528 7.408C152.442 7.408 151.57 7.73067 150.91 8.376C150.264 9.00667 149.942 9.85733 149.942 10.928C149.942 11.984 150.272 12.8347 150.932 13.48C151.592 14.1253 152.457 14.448 153.528 14.448C155.2 14.448 156.468 13.7807 157.334 12.446L159.842 13.854C158.61 16.1567 156.52 17.308 153.572 17.308C151.577 17.308 149.934 16.7287 148.644 15.57C147.368 14.4113 146.73 12.864 146.73 10.928C146.73 9.00667 147.375 7.46667 148.666 6.308C149.971 5.13467 151.606 4.548 153.572 4.548C156.505 4.548 158.602 5.69933 159.864 8.002ZM167.971 7.716L166.035 12.402H170.325L168.477 7.716H167.971ZM165.903 4.834H170.611L175.781 17H172.349L171.579 15.218H164.847L164.099 17H160.623L165.903 4.834ZM177.413 4.834H184.607C186.088 4.834 187.306 5.28867 188.259 6.198C189.212 7.09267 189.689 8.25133 189.689 9.674C189.689 11.4633 188.956 12.798 187.489 13.678L189.337 17H185.817L184.431 14.404H180.647V17H177.413V4.834ZM180.647 7.782V11.456H184.475C185.062 11.456 185.531 11.302 185.883 10.994C186.25 10.686 186.433 10.246 186.433 9.674C186.433 9.102 186.25 8.64733 185.883 8.31C185.531 7.958 185.062 7.782 184.475 7.782H180.647ZM191.356 4.834H197.758C199.46 4.834 200.978 5.41333 202.312 6.572C203.647 7.73067 204.314 9.17533 204.314 10.906C204.314 12.6367 203.647 14.0887 202.312 15.262C200.978 16.4207 199.46 17 197.758 17H191.356V4.834ZM194.59 7.76V14.03H197.802C198.712 14.03 199.482 13.7293 200.112 13.128C200.758 12.5267 201.08 11.786 201.08 10.906C201.08 10.026 200.758 9.28533 200.112 8.684C199.482 8.068 198.712 7.76 197.802 7.76H194.59ZM83.014 30.002L80.506 31.432C80.0367 30.7427 79.5013 30.2367 78.9 29.914C78.3133 29.5767 77.5727 29.408 76.678 29.408C75.5927 29.408 74.72 29.7307 74.06 30.376C73.4147 31.0067 73.092 31.8573 73.092 32.928C73.092 33.984 73.422 34.8347 74.082 35.48C74.742 36.1253 75.6073 36.448 76.678 36.448C78.35 36.448 79.6187 35.7807 80.484 34.446L82.992 35.854C81.76 38.1567 79.67 39.308 76.722 39.308C74.7273 39.308 73.0847 38.7287 71.794 37.57C70.518 36.4113 69.88 34.864 69.88 32.928C69.88 31.0067 70.5253 29.4667 71.816 28.308C73.1213 27.1347 74.7567 26.548 76.722 26.548C79.6553 26.548 81.7527 27.6993 83.014 30.002ZM88.8229 30.31C88.1482 30.97 87.8109 31.8427 87.8109 32.928C87.8109 34.0133 88.1482 34.8933 88.8229 35.568C89.5122 36.228 90.3775 36.558 91.4189 36.558C92.4455 36.558 93.2962 36.228 93.9709 35.568C94.6602 34.8933 95.0049 34.0133 95.0049 32.928C95.0049 31.8427 94.6602 30.97 93.9709 30.31C93.2962 29.6353 92.4455 29.298 91.4189 29.298C90.3775 29.298 89.5122 29.6353 88.8229 30.31ZM96.2369 28.352C97.5862 29.5547 98.2609 31.08 98.2609 32.928C98.2609 34.776 97.5862 36.3013 96.2369 37.504C94.8875 38.7067 93.2815 39.308 91.4189 39.308C89.5562 39.308 87.9502 38.7067 86.6009 37.504C85.2515 36.3013 84.5769 34.776 84.5769 32.928C84.5769 31.08 85.2515 29.5547 86.6009 28.352C87.9502 27.1493 89.5562 26.548 91.4189 26.548C93.2815 26.548 94.8875 27.1493 96.2369 28.352ZM100.22 26.834H103.168L109.68 34.182V26.834H112.892V39H109.922L103.41 31.652V39H100.22V26.834ZM127.322 28.484L125.76 30.86C124.454 29.9067 122.863 29.43 120.986 29.43C119.299 29.43 118.456 29.76 118.456 30.42C118.456 30.6547 118.551 30.816 118.742 30.904C118.947 30.9773 119.27 31.0433 119.71 31.102L123.252 31.498C126.141 31.85 127.586 33.104 127.586 35.26C127.586 36.5947 126.992 37.6067 125.804 38.296C124.63 38.9707 123.083 39.308 121.162 39.308C119.871 39.308 118.72 39.154 117.708 38.846C116.71 38.5233 115.72 37.988 114.738 37.24L116.256 34.732C117.913 35.9053 119.644 36.492 121.448 36.492C122.328 36.492 123.046 36.3967 123.604 36.206C124.161 36.0007 124.44 35.7 124.44 35.304C124.44 35.0693 124.381 34.9007 124.264 34.798C124.161 34.6953 123.926 34.6293 123.56 34.6L119.38 34.116C118.03 33.9547 117.004 33.588 116.3 33.016C115.61 32.4293 115.266 31.5713 115.266 30.442C115.266 29.166 115.801 28.198 116.872 27.538C117.942 26.878 119.314 26.548 120.986 26.548C123.538 26.548 125.65 27.1933 127.322 28.484ZM129.371 26.834H132.605V33.06C132.605 35.3333 133.617 36.47 135.641 36.47C137.651 36.47 138.655 35.3333 138.655 33.06V26.834H141.911V33.038C141.911 35.0327 141.347 36.58 140.217 37.68C139.103 38.7653 137.577 39.308 135.641 39.308C133.705 39.308 132.173 38.7653 131.043 37.68C129.929 36.58 129.371 35.0327 129.371 33.038V26.834ZM143.854 26.834H147.088V36.074H155.118V39H143.854V26.834ZM154.158 26.834H166.874V29.738H162.144V39H158.888V29.738H154.158V26.834ZM168.561 26.834H171.795V39H168.561V26.834ZM173.868 26.834H176.816L183.328 34.182V26.834H186.54V39H183.57L177.058 31.652V39H173.868V26.834ZM195.558 31.784H201.674V39H199.672L199.276 38.23C198.088 38.9487 196.754 39.308 195.272 39.308C193.336 39.308 191.716 38.7287 190.41 37.57C189.105 36.3967 188.452 34.8493 188.452 32.928C188.452 31.0067 189.098 29.4667 190.388 28.308C191.694 27.1347 193.322 26.548 195.272 26.548C196.71 26.548 197.927 26.812 198.924 27.34C199.936 27.868 200.802 28.682 201.52 29.782L198.946 31.234C198.462 30.5887 197.956 30.1413 197.428 29.892C196.915 29.628 196.189 29.496 195.25 29.496C194.15 29.496 193.278 29.804 192.632 30.42C191.987 31.0213 191.664 31.8573 191.664 32.928C191.664 34.0133 191.98 34.8567 192.61 35.458C193.256 36.0593 194.136 36.36 195.25 36.36C196.6 36.36 197.7 36.096 198.55 35.568V34.578L195.558 34.468V31.784Z" fill="#2B2B2B"/>
<g clip-path="url(#clip0)">
<path d="M56 6.19791V37.805C37.3342 23.2659 18.6658 52.3442 0 37.805V6.19791C18.6658 20.7371 37.3342 -8.34125 56 6.19791Z" fill="#5282F8"/>
<path d="M56 11.5348C37.3342 -3.00432 18.6658 26.074 0 11.5348V8.88893C18.6658 23.4254 37.3342 -5.65023 56 8.88893V11.5348Z" fill="#E6E8E7"/>
<path d="M56 17.3191C37.3342 2.77993 18.6658 31.8556 0 17.3191V14.6705C18.6658 29.2097 37.3342 0.136683 56 14.6705V17.3191Z" fill="#E6E8E7"/>
<path d="M56 23.1007C37.3342 8.56153 18.6658 37.6398 0 23.1007V20.4548C18.6658 34.9939 37.3342 5.91563 56 20.4548V23.1007Z" fill="#E6E8E7"/>
<path d="M56 28.8849C37.3342 14.3458 18.6658 43.4241 0 28.8849V26.2231C18.6658 40.7622 37.3342 11.6866 56 26.2231V28.8849Z" fill="#E6E8E7"/>
<path d="M56 34.6665C37.3342 20.13 18.6658 49.2057 0 34.6692V32.0073C18.6658 46.5465 37.3342 17.4682 56 32.0073V34.6665Z" fill="#E6E8E7"/>
<path d="M21.5964 25.4644C14.3968 27.8202 7.1997 28.7093 0 23.1007V6.19777C7.1997 11.8037 14.3968 10.9253 21.5964 8.56152V25.4644Z" fill="#5282F8"/>
<path d="M2.11601 10.2784C2.26413 10.6724 2.41225 11.0628 2.56037 11.4497C2.89099 11.6892 3.22426 11.9181 3.55489 12.1311C3.31419 12.2482 3.07614 12.3547 2.83545 12.4585C2.89099 12.8205 2.94918 13.1852 3.00473 13.5472C2.69967 13.2313 2.40343 12.9039 2.11601 12.565C1.81977 12.541 1.52088 12.5064 1.22464 12.4612C1.28283 12.1684 1.33838 11.8729 1.39657 11.5801C1.14794 11.1826 0.902832 10.7797 0.661255 10.3716C0.994525 10.5632 1.32515 10.7416 1.65842 10.904C1.80654 10.7017 1.95466 10.4914 2.11601 10.2784Z" fill="#E6E8E7"/>
<path d="M6.14434 12.1471C6.29246 12.4984 6.44058 12.8471 6.59135 13.1932C6.92197 13.3369 7.2526 13.4727 7.58587 13.5978C7.34517 13.7788 7.10448 13.9518 6.86643 14.1302C6.92197 14.4789 6.97752 14.8249 7.03571 15.1736C6.73947 14.9367 6.44058 14.6945 6.14434 14.4416C5.8481 14.5028 5.55186 14.5561 5.25562 14.5987C5.31117 14.2872 5.36936 13.9784 5.4249 13.667C5.1842 13.3423 4.94615 13.0122 4.70546 12.6741C5.03608 12.7646 5.36935 12.8445 5.69998 12.9137C5.8481 12.6582 5.99622 12.4026 6.14434 12.1471Z" fill="#E6E8E7"/>
<path d="M10.1886 12.951L10.6329 13.8906C10.9662 13.9598 11.2968 14.0184 11.6274 14.0716C11.3894 14.3032 11.1487 14.5321 10.908 14.7557C10.9662 15.0911 11.0217 15.4265 11.0773 15.7619C10.781 15.5942 10.4848 15.4185 10.1886 15.2295C9.89231 15.36 9.59607 15.4957 9.29719 15.6048C9.35538 15.2801 9.41092 14.9553 9.46911 14.6279C9.22841 14.3617 8.98772 14.0956 8.74702 13.8294C9.08029 13.8294 9.41092 13.8294 9.74419 13.8294L10.1886 12.951Z" fill="#E6E8E7"/>
<path d="M14.2301 12.8871L14.6771 13.7442C15.0077 13.7442 15.3384 13.7442 15.6716 13.7442L14.9522 14.5587C15.0077 14.8835 15.0659 15.2082 15.1215 15.533C14.8252 15.4185 14.529 15.2987 14.2301 15.1736C13.9339 15.3626 13.6376 15.5436 13.3414 15.722C13.3969 15.3866 13.4551 15.0485 13.5107 14.7131L12.7912 14.0503C13.1219 13.9864 13.4551 13.9146 13.7858 13.8374C13.9409 13.5233 14.0891 13.2065 14.2301 12.8871Z" fill="#E6E8E7"/>
<path d="M18.2743 12.1524L18.7187 12.951C19.052 12.9137 19.3826 12.8711 19.7132 12.8232C19.4752 13.1293 19.2345 13.4301 18.9938 13.7309C19.052 14.0476 19.1075 14.3644 19.1657 14.6812C18.8668 14.6066 18.5706 14.5268 18.2743 14.4443C17.9781 14.6732 17.6819 14.9021 17.3856 15.123C17.4412 14.7797 17.4967 14.4336 17.5549 14.0876C17.3142 13.9066 17.0735 13.7229 16.8354 13.5366C17.1661 13.4194 17.4967 13.2997 17.83 13.1719L18.2743 12.1524Z" fill="#E6E8E7"/>
<path d="M4.12356 14.1142C4.27168 14.4869 4.4198 14.8542 4.56792 15.2215C4.90119 15.4105 5.23181 15.5915 5.56244 15.7539C5.32439 15.903 5.08369 16.0441 4.843 16.1825C4.90119 16.5392 4.95673 16.8932 5.01492 17.2472C4.71516 16.9739 4.41804 16.69 4.12356 16.3954C3.82732 16.4167 3.53108 16.4274 3.23484 16.4274C3.29038 16.1266 3.34593 15.8231 3.40412 15.5197C3.1643 15.1648 2.92449 14.8001 2.68468 14.4256C3.0153 14.5641 3.34593 14.6918 3.6792 14.8063C3.82732 14.5827 3.9675 14.3484 4.12356 14.1142Z" fill="#E6E8E7"/>
<path d="M8.16777 15.4265C8.31589 15.7601 8.46401 16.0902 8.61213 16.4167C8.94275 16.5205 9.27603 16.6164 9.60665 16.7042C9.36596 16.9118 9.1279 17.1141 8.88721 17.3138C8.94275 17.6545 9.00095 17.9952 9.05649 18.3359C8.76025 18.1372 8.46401 17.9269 8.16777 17.7051C7.86888 17.8036 7.57264 17.8941 7.2764 17.9713C7.33459 17.6518 7.39014 17.3351 7.44568 17.0156C7.20763 16.7228 6.96782 16.4247 6.72624 16.1212C7.05951 16.1665 7.39014 16.2011 7.72076 16.2277C7.86888 15.9722 8.01965 15.7007 8.16777 15.4265Z" fill="#E6E8E7"/>
<path d="M12.2093 15.7725L12.6537 16.6669C12.987 16.7015 13.3176 16.7308 13.6509 16.7521C13.4102 17.0183 13.1695 17.2579 12.9288 17.5054C12.987 17.8355 13.0425 18.1656 13.1007 18.493C12.8018 18.3546 12.5056 18.2082 12.2093 18.0564C11.9131 18.2188 11.6169 18.3759 11.3206 18.5249C11.3762 18.1948 11.4343 17.8621 11.4899 17.532C11.2492 17.2925 11.0085 17.0476 10.7705 16.8C11.1011 16.7681 11.4343 16.7308 11.765 16.6829L12.2093 15.7725Z" fill="#E6E8E7"/>
<path d="M16.2535 15.3466C16.4017 15.6235 16.5498 15.8977 16.6979 16.1692C17.0285 16.1532 17.3618 16.1292 17.6924 16.1C17.4517 16.3928 17.2137 16.6802 16.973 16.9651C17.0285 17.2872 17.0867 17.6066 17.1423 17.926C16.846 17.8328 16.5498 17.737 16.2535 17.6332C15.9573 17.8461 15.6584 18.0511 15.3622 18.2534C15.4204 17.9127 15.4759 17.572 15.5341 17.2313C15.2934 17.0316 15.0527 16.832 14.812 16.627C15.1453 16.5365 15.4759 16.438 15.8092 16.3342L16.2535 15.3466Z" fill="#E6E8E7"/>
<path d="M2.11601 16.289C2.26413 16.6829 2.41225 17.0733 2.56037 17.4602C2.89099 17.6998 3.22426 17.9287 3.55489 18.1416C3.31419 18.2587 3.07614 18.3652 2.83545 18.469C2.89099 18.831 2.94918 19.1957 3.00473 19.5577C2.69967 19.2419 2.40343 18.9145 2.11601 18.5755C1.81977 18.5516 1.52088 18.5169 1.22464 18.4717C1.28283 18.1789 1.33838 17.8834 1.39657 17.5906C1.14794 17.1931 0.902832 16.7876 0.661255 16.3741C0.994525 16.5658 1.32515 16.7441 1.65842 16.9065C1.80654 16.7122 1.95466 16.5019 2.11601 16.289Z" fill="#E6E8E7"/>
<path d="M6.14434 18.1576C6.29246 18.509 6.44058 18.8577 6.59135 19.2037C6.92197 19.3474 7.2526 19.4832 7.58587 19.6083C7.34517 19.7893 7.10448 19.9623 6.86643 20.1407C6.92197 20.4894 6.97752 20.8354 7.03571 21.1841C6.73947 20.9472 6.44058 20.705 6.14434 20.4521C5.8481 20.5133 5.55186 20.5666 5.25562 20.6092C5.31117 20.2977 5.36936 19.989 5.4249 19.6749C5.1842 19.3528 4.94615 19.0227 4.70546 18.6846C5.03608 18.7751 5.36935 18.855 5.69998 18.9242L6.14434 18.1576Z" fill="#E6E8E7"/>
<path d="M10.1886 18.9615L10.6329 19.9011C10.9662 19.9703 11.2968 20.0289 11.6274 20.0821C11.3894 20.3137 11.1487 20.5426 10.908 20.7662C10.9662 21.1016 11.0217 21.437 11.0773 21.7724C10.781 21.6047 10.4848 21.429 10.1886 21.24C9.89231 21.3705 9.59607 21.5062 9.29719 21.6154C9.35538 21.2906 9.41092 20.9659 9.46911 20.6385C9.22841 20.3723 8.98772 20.1061 8.74702 19.8399C9.08029 19.8399 9.41092 19.8399 9.74419 19.8399L10.1886 18.9615Z" fill="#E6E8E7"/>
<path d="M14.2301 18.8976L14.6771 19.7547C15.0077 19.7547 15.3384 19.7547 15.6716 19.7547L14.9522 20.5693C15.0077 20.894 15.0659 21.2187 15.1215 21.5435C14.8252 21.429 14.529 21.3093 14.2301 21.1841C13.9339 21.3731 13.6376 21.5541 13.3414 21.7325C13.3969 21.3971 13.4551 21.059 13.5107 20.7236L12.7912 20.0608C13.1219 19.9969 13.4551 19.9251 13.7858 19.8479C13.9409 19.5338 14.0891 19.217 14.2301 18.8976Z" fill="#E6E8E7"/>
<path d="M18.2743 18.1629L18.7187 18.9615C19.052 18.9242 19.3826 18.8816 19.7132 18.8337C19.4752 19.1398 19.2345 19.4406 18.9938 19.7414C19.052 20.0582 19.1075 20.3749 19.1657 20.6917C18.8668 20.6172 18.5706 20.5373 18.2743 20.4548L17.3856 21.1336C17.4412 20.7902 17.4967 20.4441 17.5549 20.0981C17.3142 19.9171 17.0735 19.7334 16.8354 19.5471C17.1661 19.43 17.4967 19.3102 17.83 19.1824C17.986 18.8417 18.1262 18.5036 18.2743 18.1629Z" fill="#E6E8E7"/>
<path d="M4.12356 20.1247C4.27168 20.4974 4.4198 20.8647 4.56792 21.232C4.90119 21.421 5.23181 21.602 5.56244 21.7644C5.32439 21.9135 5.08369 22.0546 4.843 22.193C4.90119 22.5497 4.95673 22.9037 5.01492 23.2577C4.71516 22.9827 4.41804 22.6987 4.12356 22.4059C3.82732 22.4272 3.53108 22.4379 3.23484 22.4379C3.29038 22.1371 3.34593 21.8336 3.40412 21.5302C3.1643 21.1753 2.92449 20.8106 2.68468 20.4362C3.0153 20.5746 3.34593 20.7023 3.6792 20.8168C3.82732 20.5932 3.9675 20.3669 4.12356 20.1247Z" fill="#E6E8E7"/>
<path d="M8.16777 21.4317C8.31589 21.7653 8.46401 22.0954 8.61213 22.4219C8.94275 22.5257 9.27603 22.6215 9.60665 22.7094C9.36596 22.917 9.1279 23.1193 8.88721 23.319C8.94275 23.6597 9.00095 24.0004 9.05649 24.3411C8.76025 24.1424 8.46401 23.9347 8.16777 23.7182C7.86888 23.8167 7.57264 23.9072 7.2764 23.9844C7.33459 23.665 7.39014 23.3482 7.44568 23.0288C7.20763 22.736 6.96782 22.4379 6.72624 22.1344C7.05951 22.1797 7.39014 22.2143 7.72076 22.2409C7.86888 21.9827 8.01965 21.7112 8.16777 21.4317Z" fill="#E6E8E7"/>
<path d="M12.2093 21.7831L12.6537 22.6774C12.987 22.712 13.3176 22.7413 13.6509 22.7626C13.4102 23.0288 13.1695 23.2684 12.9288 23.5159C12.987 23.846 13.0425 24.1761 13.1007 24.5035C12.8018 24.3651 12.5056 24.2187 12.2093 24.0669C11.9131 24.2293 11.6169 24.3864 11.3206 24.5354C11.3762 24.2054 11.4343 23.8726 11.4899 23.5426C11.2492 23.303 11.0085 23.0581 10.7705 22.8105C11.1011 22.7786 11.4343 22.7413 11.765 22.6934L12.2093 21.7831Z" fill="#E6E8E7"/>
<path d="M16.2535 21.3572C16.4017 21.634 16.5498 21.9082 16.6979 22.1797C17.0285 22.1637 17.3618 22.1398 17.6924 22.1105C17.4517 22.4033 17.2137 22.6908 16.973 22.9756C17.0285 23.2977 17.0867 23.6171 17.1423 23.9365C16.846 23.8434 16.5498 23.7475 16.2535 23.6437C15.9573 23.8567 15.6584 24.0616 15.3622 24.2639C15.4204 23.9232 15.4759 23.5825 15.5341 23.2418C15.2934 23.0421 15.0527 22.8425 14.812 22.6375C15.1453 22.547 15.4759 22.4485 15.8092 22.3447L16.2535 21.3572Z" fill="#E6E8E7"/>
</g>
<defs>
<clipPath id="clip0">
<rect width="56" height="40" fill="white" transform="translate(0 2)"/>
</clipPath>
</defs>
</svg>
