<svg width="106" height="153" viewBox="0 0 106 153" fill="none" xmlns="http://www.w3.org/2000/svg">
<ellipse cx="53.3764" cy="142.435" rx="19.2873" ry="9.8679" fill="white"/>
<path d="M106 57.2125C102.018 102.206 63.397 135.182 54.7737 142.021C53.7536 142.83 52.3889 142.833 51.3653 142.028C42.6871 135.207 3.72925 102.223 0.144326 57.2125C-2.17648 28.0735 23.8409 0.696289 53.0722 0.696289C82.3034 0.696289 106 27.9812 106 57.2125Z" fill="#C4C4C4"/>
<path d="M106 57.2125C102.018 102.206 63.397 135.182 54.7737 142.021C53.7536 142.83 52.3889 142.833 51.3653 142.028C42.6871 135.207 3.72925 102.223 0.144326 57.2125C-2.17648 28.0735 23.8409 0.696289 53.0722 0.696289C82.3034 0.696289 106 27.9812 106 57.2125Z" fill="url(#paint0_linear)"/>
<path d="M106 57.2125C102.018 102.206 63.397 135.182 54.7737 142.021C53.7536 142.83 52.3889 142.833 51.3653 142.028C42.6871 135.207 3.72925 102.223 0.144326 57.2125C-2.17648 28.0735 23.8409 0.696289 53.0722 0.696289C82.3034 0.696289 106 27.9812 106 57.2125Z" fill="url(#paint1_linear)"/>
<path d="M106 57.2125C102.018 102.206 63.397 135.182 54.7737 142.021C53.7536 142.83 52.3889 142.833 51.3653 142.028C42.6871 135.207 3.72925 102.223 0.144326 57.2125C-2.17648 28.0735 23.8409 0.696289 53.0722 0.696289C82.3034 0.696289 106 27.9812 106 57.2125Z" fill="url(#paint2_linear)"/>
<circle cx="53" cy="54" r="37" fill="white"/>
<g clip-path="url(#clip0)">
<path d="M75 41.3587V66.6443C60.0007 55.013 44.9993 78.2757 30 66.6443V41.3587C44.9993 52.99 60.0007 29.7273 75 41.3587Z" fill="#5282F8"/>
<path d="M75 45.6279C60.0007 33.9966 44.9993 57.2593 30 45.6279V43.5112C44.9993 55.1404 60.0007 31.8799 75 43.5112V45.6279Z" fill="#E6E8E7"/>
<path d="M75 50.2551C60.0007 38.6238 44.9993 61.8843 30 50.2551V48.1363C44.9993 59.7676 60.0007 36.5092 75 48.1363V50.2551Z" fill="#E6E8E7"/>
<path d="M75 54.8806C60.0007 43.2493 44.9993 66.512 30 54.8806V52.7639C44.9993 64.3953 60.0007 41.1326 75 52.7639V54.8806Z" fill="#E6E8E7"/>
<path d="M75 59.5078C60.0007 47.8765 44.9993 71.1392 30 59.5078V57.3783C44.9993 69.0097 60.0007 45.7491 75 57.3783V59.5078Z" fill="#E6E8E7"/>
<path d="M75 64.1335C60.0007 52.5043 44.9993 75.7648 30 64.1356V62.0061C44.9993 73.6374 60.0007 50.3748 75 62.0061V64.1335Z" fill="#E6E8E7"/>
<path d="M47.3543 56.7717C41.5688 58.6563 35.7855 59.3676 30 54.8807V41.3584C35.7855 45.8431 41.5688 45.1404 47.3543 43.2494V56.7717Z" fill="#5282F8"/>
<path d="M31.7004 44.623C31.8194 44.9382 31.9384 45.2505 32.0574 45.56C32.3231 45.7517 32.5909 45.9348 32.8566 46.1052C32.6632 46.1989 32.4719 46.2841 32.2785 46.3671C32.3231 46.6567 32.3699 46.9485 32.4145 47.2381C32.1694 46.9854 31.9313 46.7234 31.7004 46.4523C31.4623 46.4331 31.2221 46.4054 30.9841 46.3692C31.0309 46.135 31.0755 45.8986 31.1222 45.6644C30.9225 45.3464 30.7255 45.0241 30.5314 44.6976C30.7992 44.8509 31.0649 44.9936 31.3327 45.1235C31.4517 44.9616 31.5707 44.7934 31.7004 44.623Z" fill="#E6E8E7"/>
<path d="M34.9374 46.1182C35.0565 46.3993 35.1755 46.6782 35.2966 46.9551C35.5623 47.0701 35.828 47.1787 36.0958 47.2787C35.9024 47.4235 35.709 47.562 35.5177 47.7046C35.5623 47.9836 35.6069 48.2604 35.6537 48.5394C35.4157 48.3499 35.1755 48.1561 34.9374 47.9538C34.6994 48.0028 34.4613 48.0454 34.2233 48.0794C34.2679 47.8303 34.3147 47.5833 34.3593 47.3341C34.1659 47.0743 33.9746 46.8103 33.7812 46.5398C34.0469 46.6122 34.3147 46.6761 34.5804 46.7315C34.6994 46.527 34.8184 46.3226 34.9374 46.1182Z" fill="#E6E8E7"/>
<path d="M38.1872 46.7607L38.5443 47.5125C38.8121 47.5678 39.0778 47.6147 39.3435 47.6573C39.1522 47.8425 38.9588 48.0257 38.7654 48.2045C38.8121 48.4729 38.8568 48.7412 38.9014 49.0095C38.6633 48.8753 38.4253 48.7348 38.1872 48.5836C37.9492 48.6879 37.7111 48.7965 37.471 48.8839C37.5177 48.6241 37.5624 48.3643 37.6091 48.1023C37.4157 47.8894 37.2223 47.6764 37.0289 47.4635C37.2967 47.4635 37.5624 47.4635 37.8302 47.4635L38.1872 46.7607Z" fill="#E6E8E7"/>
<path d="M41.4349 46.71L41.7941 47.3957C42.0598 47.3957 42.3255 47.3957 42.5933 47.3957L42.0152 48.0473C42.0598 48.3071 42.1066 48.5669 42.1512 48.8267C41.9132 48.7351 41.6751 48.6393 41.4349 48.5392C41.1969 48.6904 40.9588 48.8352 40.7208 48.9779C40.7654 48.7096 40.8122 48.4391 40.8568 48.1708L40.2787 47.6406C40.5444 47.5894 40.8122 47.5319 41.0779 47.4702C41.2025 47.2189 41.3216 46.9655 41.4349 46.71Z" fill="#E6E8E7"/>
<path d="M44.6847 46.1221L45.0418 46.7609C45.3096 46.7311 45.5753 46.697 45.841 46.6587C45.6497 46.9036 45.4563 47.1442 45.2629 47.3849C45.3096 47.6383 45.3543 47.8917 45.401 48.1451C45.1609 48.0855 44.9228 48.0216 44.6847 47.9556C44.4467 48.1387 44.2086 48.3218 43.9706 48.4986C44.0152 48.2239 44.0599 47.9471 44.1066 47.6702C43.9132 47.5254 43.7198 47.3785 43.5285 47.2294C43.7942 47.1357 44.0599 47.0399 44.3277 46.9377L44.6847 46.1221Z" fill="#E6E8E7"/>
<path d="M33.3136 47.6914C33.4326 47.9895 33.5516 48.2834 33.6707 48.5773C33.9385 48.7285 34.2042 48.8733 34.4698 49.0032C34.2785 49.1224 34.0851 49.2353 33.8917 49.346C33.9385 49.6314 33.9831 49.9146 34.0299 50.1978C33.789 49.9792 33.5502 49.7521 33.3136 49.5164C33.0755 49.5334 32.8375 49.5419 32.5994 49.5419C32.6441 49.3013 32.6887 49.0585 32.7355 48.8158C32.5428 48.5318 32.3501 48.2401 32.1573 47.9406C32.423 48.0513 32.6887 48.1535 32.9565 48.2451C33.0755 48.0662 33.1882 47.8788 33.3136 47.6914Z" fill="#E6E8E7"/>
<path d="M36.5634 48.7412C36.6824 49.0081 36.8014 49.2722 36.9205 49.5334C37.1862 49.6164 37.454 49.6931 37.7196 49.7634C37.5262 49.9295 37.3349 50.0913 37.1415 50.251C37.1862 50.5236 37.2329 50.7962 37.2776 51.0688C37.0395 50.9098 36.8014 50.7415 36.5634 50.5641C36.3232 50.6429 36.0852 50.7153 35.8471 50.777C35.8939 50.5215 35.9385 50.2681 35.9832 50.0125C35.7919 49.7783 35.5992 49.5398 35.405 49.297C35.6728 49.3332 35.9385 49.3609 36.2042 49.3822C36.3232 49.1778 36.4444 48.9605 36.5634 48.7412Z" fill="#E6E8E7"/>
<path d="M39.8111 49.0186L40.1682 49.7341C40.436 49.7617 40.7017 49.7852 40.9695 49.8022C40.776 50.0152 40.5826 50.2068 40.3892 50.4049C40.436 50.6689 40.4806 50.933 40.5274 51.1949C40.2872 51.0842 40.0491 50.967 39.8111 50.8457C39.573 50.9756 39.335 51.1012 39.0969 51.2205C39.1416 50.9564 39.1883 50.6902 39.233 50.4262C39.0396 50.2345 38.8461 50.0386 38.6548 49.8405C38.9205 49.815 39.1883 49.7852 39.454 49.7468L39.8111 49.0186Z" fill="#E6E8E7"/>
<path d="M43.0609 48.6777C43.1799 48.8992 43.2989 49.1185 43.418 49.3357C43.6837 49.323 43.9515 49.3038 44.2171 49.2804C44.0237 49.5146 43.8324 49.7446 43.639 49.9725C43.6837 50.2301 43.7304 50.4857 43.775 50.7412C43.537 50.6667 43.2989 50.59 43.0609 50.507C42.8228 50.6773 42.5827 50.8413 42.3446 51.0031C42.3914 50.7306 42.436 50.458 42.4828 50.1854C42.2894 50.0257 42.0959 49.866 41.9025 49.702C42.1703 49.6296 42.436 49.5508 42.7038 49.4678L43.0609 48.6777Z" fill="#E6E8E7"/>
<path d="M31.7004 49.4316C31.8194 49.7468 31.9384 50.0591 32.0574 50.3686C32.3231 50.5603 32.5909 50.7434 32.8566 50.9138C32.6632 51.0075 32.4719 51.0927 32.2785 51.1757C32.3231 51.4653 32.3699 51.7571 32.4145 52.0467C32.1694 51.794 31.9313 51.532 31.7004 51.2609C31.4623 51.2417 31.2221 51.214 30.9841 51.1778C31.0309 50.9436 31.0755 50.7072 31.1222 50.473C30.9225 50.155 30.7255 49.8306 30.5314 49.4998C30.7992 49.6531 31.0649 49.7958 31.3327 49.9257C31.4517 49.7702 31.5707 49.602 31.7004 49.4316Z" fill="#E6E8E7"/>
<path d="M34.9374 50.9258C35.0565 51.2069 35.1755 51.4858 35.2966 51.7627C35.5623 51.8777 35.828 51.9863 36.0958 52.0864C35.9024 52.2312 35.709 52.3696 35.5177 52.5123C35.5623 52.7912 35.6069 53.0681 35.6537 53.347C35.4157 53.1575 35.1755 52.9637 34.9374 52.7614C34.6994 52.8104 34.4613 52.853 34.2233 52.887C34.2679 52.6379 34.3147 52.3909 34.3593 52.1396C34.1659 51.8819 33.9746 51.6179 33.7812 51.3474C34.0469 51.4198 34.3147 51.4837 34.5804 51.5391L34.9374 50.9258Z" fill="#E6E8E7"/>
<path d="M38.1872 51.5693L38.5443 52.321C38.8121 52.3764 39.0778 52.4233 39.3435 52.4659C39.1522 52.6511 38.9588 52.8343 38.7654 53.0131C38.8121 53.2815 38.8568 53.5498 38.9014 53.8181C38.6633 53.6839 38.4253 53.5434 38.1872 53.3922C37.9492 53.4965 37.7111 53.6051 37.471 53.6924C37.5177 53.4326 37.5624 53.1728 37.6091 52.9109C37.4157 52.698 37.2223 52.485 37.0289 52.2721C37.2967 52.2721 37.5624 52.2721 37.8302 52.2721L38.1872 51.5693Z" fill="#E6E8E7"/>
<path d="M41.4349 51.5186L41.7941 52.2043C42.0598 52.2043 42.3255 52.2043 42.5933 52.2043L42.0152 52.8559C42.0598 53.1157 42.1066 53.3755 42.1512 53.6353C41.9132 53.5437 41.6751 53.4479 41.4349 53.3478C41.1969 53.499 40.9588 53.6438 40.7208 53.7865C40.7654 53.5182 40.8122 53.2477 40.8568 52.9794L40.2787 52.4491C40.5444 52.398 40.8122 52.3405 41.0779 52.2788C41.2025 52.0275 41.3216 51.7741 41.4349 51.5186Z" fill="#E6E8E7"/>
<path d="M44.6847 50.9307L45.0418 51.5695C45.3096 51.5397 45.5753 51.5056 45.841 51.4673C45.6497 51.7122 45.4563 51.9528 45.2629 52.1935C45.3096 52.4469 45.3543 52.7003 45.401 52.9537C45.1609 52.8941 44.9228 52.8302 44.6847 52.7642L43.9706 53.3072C44.0152 53.0325 44.0599 52.7556 44.1066 52.4788C43.9132 52.334 43.7198 52.1871 43.5285 52.038C43.7942 51.9443 44.0599 51.8485 44.3277 51.7463C44.4531 51.4737 44.5657 51.2032 44.6847 50.9307Z" fill="#E6E8E7"/>
<path d="M33.3136 52.5C33.4326 52.7981 33.5516 53.092 33.6707 53.3859C33.9385 53.5371 34.2042 53.6819 34.4698 53.8118C34.2785 53.931 34.0851 54.0439 33.8917 54.1546C33.9385 54.44 33.9831 54.7232 34.0299 55.0064C33.789 54.7864 33.5502 54.5592 33.3136 54.325C33.0755 54.342 32.8375 54.3505 32.5994 54.3505C32.6441 54.1099 32.6887 53.8671 32.7355 53.6244C32.5428 53.3404 32.3501 53.0487 32.1573 52.7492C32.423 52.8599 32.6887 52.9621 32.9565 53.0537C33.0755 52.8748 33.1882 52.6938 33.3136 52.5Z" fill="#E6E8E7"/>
<path d="M36.5634 53.5459C36.6824 53.8128 36.8014 54.0769 36.9205 54.3381C37.1862 54.4211 37.454 54.4978 37.7196 54.5681C37.5262 54.7342 37.3349 54.896 37.1415 55.0557C37.1862 55.3283 37.2329 55.6009 37.2776 55.8734C37.0395 55.7144 36.8014 55.5483 36.5634 55.3751C36.3232 55.4539 36.0852 55.5263 35.8471 55.5881C35.8939 55.3325 35.9385 55.0791 35.9832 54.8236C35.7919 54.5894 35.5992 54.3508 35.405 54.1081C35.6728 54.1443 35.9385 54.172 36.2042 54.1933C36.3232 53.9867 36.4444 53.7695 36.5634 53.5459Z" fill="#E6E8E7"/>
<path d="M39.8111 53.8262L40.1682 54.5417C40.436 54.5694 40.7017 54.5928 40.9695 54.6098C40.776 54.8228 40.5826 55.0144 40.3892 55.2125C40.436 55.4765 40.4806 55.7406 40.5274 56.0025C40.2872 55.8918 40.0491 55.7747 39.8111 55.6533C39.573 55.7832 39.335 55.9088 39.0969 56.0281C39.1416 55.764 39.1883 55.4978 39.233 55.2338C39.0396 55.0421 38.8461 54.8462 38.6548 54.6482C38.9205 54.6226 39.1883 54.5928 39.454 54.5545L39.8111 53.8262Z" fill="#E6E8E7"/>
<path d="M43.0609 53.4854C43.1799 53.7068 43.2989 53.9262 43.418 54.1434C43.6837 54.1306 43.9515 54.1114 44.2171 54.088C44.0237 54.3222 43.8324 54.5522 43.639 54.7801C43.6837 55.0378 43.7304 55.2933 43.775 55.5488C43.537 55.4743 43.2989 55.3976 43.0609 55.3146C42.8228 55.485 42.5827 55.6489 42.3446 55.8108C42.3914 55.5382 42.436 55.2656 42.4828 54.993C42.2894 54.8333 42.0959 54.6736 41.9025 54.5096C42.1703 54.4372 42.436 54.3584 42.7038 54.2754L43.0609 53.4854Z" fill="#E6E8E7"/>
</g>
<defs>
<linearGradient id="paint0_linear" x1="44.1014" y1="0.696282" x2="-19.735" y2="92.955" gradientUnits="userSpaceOnUse">
<stop stop-color="#DFD5C6"/>
<stop offset="1" stop-color="#C8B69C"/>
</linearGradient>
<linearGradient id="paint1_linear" x1="57" y1="139" x2="117.721" y2="51.9189" gradientUnits="userSpaceOnUse">
<stop stop-color="#CFB083"/>
<stop offset="1" stop-color="#E8C28F"/>
</linearGradient>
<linearGradient id="paint2_linear" x1="53" y1="0.696289" x2="53" y2="143.332" gradientUnits="userSpaceOnUse">
<stop stop-color="#5282F8"/>
<stop offset="1" stop-color="#3166F4" stop-opacity="0.76"/>
</linearGradient>
<clipPath id="clip0">
<rect width="45" height="32" fill="white" transform="translate(30 38)"/>
</clipPath>
</defs>
</svg>
