<svg width="11" height="17" viewBox="0 0 11 17" fill="none" xmlns="http://www.w3.org/2000/svg">
<path d="M9.91423 7.91228L2.51084 1.2141C2.33961 1.05905 2.11103 0.973633 1.8673 0.973633C1.62357 0.973633 1.395 1.05905 1.22376 1.2141L0.678556 1.70726C0.323785 2.02861 0.323785 2.55089 0.678555 2.87175L6.89537 8.49649L0.671655 14.1275C0.500424 14.2825 0.405881 14.4892 0.405881 14.7096C0.405881 14.9302 0.500424 15.1369 0.671655 15.2921L1.21686 15.7851C1.38823 15.9402 1.61667 16.0256 1.8604 16.0256C2.10413 16.0256 2.33271 15.9402 2.50394 15.7851L9.91423 9.08082C10.0859 8.92528 10.1801 8.71761 10.1796 8.49685C10.1801 8.27524 10.0859 8.06769 9.91423 7.91228Z" fill="#CBCBCB"/>
</svg>
