<svg width="11" height="17" viewBox="0 0 11 17" fill="none" xmlns="http://www.w3.org/2000/svg">
<path d="M1.08577 9.08772L8.48916 15.7859C8.66039 15.941 8.88897 16.0264 9.1327 16.0264C9.37643 16.0264 9.605 15.941 9.77624 15.7859L10.3214 15.2927C10.6762 14.9714 10.6762 14.4491 10.3214 14.1282L4.10463 8.50351L10.3283 2.87254C10.4996 2.7175 10.5941 2.51081 10.5941 2.29041C10.5941 2.06978 10.4996 1.86309 10.3283 1.70792L9.78314 1.21488C9.61177 1.05984 9.38332 0.97442 9.1396 0.97442C8.89587 0.97442 8.66729 1.05984 8.49606 1.21488L1.08577 7.91918C0.91413 8.07472 0.819858 8.28239 0.820399 8.50315C0.819858 8.72476 0.91413 8.93231 1.08577 9.08772Z" fill="#CBCBCB"/>
</svg>
