<svg width="44" height="42" viewBox="0 0 44 42" fill="none" xmlns="http://www.w3.org/2000/svg">
<g clip-path="url(#clip0)">
<path d="M0.00929396 29.1426C0.00929396 34.6645 4.69852 39.1406 10.4832 39.1406C16.268 39.1406 20.9573 34.6645 20.9573 29.1426C20.9573 23.6208 16.268 19.1448 10.4832 19.1448C9.29439 19.1448 8.15638 19.3426 7.09103 19.6912C9.44812 6.78717 19.99 -1.53447 10.2177 5.3144C-0.618258 12.909 -0.00231133 28.8371 0.0098136 29.129C0.0098136 29.1335 0.00929396 29.1376 0.00929396 29.1426Z" fill="#5282F8"/>
<path d="M23.0521 29.1426C23.0521 34.6645 27.7414 39.1406 33.5262 39.1406C39.311 39.1406 44.0002 34.6645 44.0002 29.1426C44.0002 23.6208 39.3109 19.1448 33.5261 19.1448C32.3371 19.1448 31.1992 19.3426 30.1339 19.6912C32.491 6.78717 43.0328 -1.53447 33.2605 5.3144C22.4246 12.909 23.0404 28.8371 23.0527 29.129C23.0527 29.1335 23.0521 29.1376 23.0521 29.1426Z" fill="#5282F8"/>
</g>
<defs>
<clipPath id="clip0">
<rect width="44" height="42" fill="white"/>
</clipPath>
</defs>
</svg>
