<svg width="18" height="18" viewBox="0 0 18 18" fill="none" xmlns="http://www.w3.org/2000/svg">
<g clip-path="url(#clip0)">
<path d="M0.00382704 12.2959C0.00382704 14.5309 1.92215 16.3427 4.28863 16.3427C6.65514 16.3427 8.57346 14.5309 8.57346 12.2959C8.57346 10.0609 6.65514 8.24914 4.28863 8.24914C3.80228 8.24914 3.33673 8.32921 2.9009 8.47032C3.86517 3.24726 8.17774 -0.121027 4.18 2.65114C-0.252899 5.72516 -0.000920577 12.1722 0.00403962 12.2904C0.00403962 12.2922 0.00382704 12.2939 0.00382704 12.2959Z" fill="white"/>
<path d="M9.43041 12.2959C9.43041 14.5309 11.3487 16.3427 13.7152 16.3427C16.0817 16.3427 18.0001 14.5309 18.0001 12.2959C18.0001 10.0609 16.0817 8.24914 13.7152 8.24914C13.2288 8.24914 12.7633 8.32921 12.3275 8.47032C13.2917 3.24726 17.6043 -0.121027 13.6066 2.65114C9.17369 5.72516 9.42563 12.1722 9.43062 12.2904C9.43062 12.2922 9.43041 12.2939 9.43041 12.2959Z" fill="white"/>
</g>
<defs>
<clipPath id="clip0">
<rect width="18" height="17" fill="white" transform="translate(0 0.5)"/>
</clipPath>
</defs>
</svg>
