<svg width="46" height="24" viewBox="0 0 46 24" fill="none" xmlns="http://www.w3.org/2000/svg">
<path opacity="0.4" fill-rule="evenodd" clip-rule="evenodd" d="M29.2201 3.40244C29.1679 3.43937 29.1089 3.46526 29.0468 3.47784C28.9846 3.49043 28.9207 3.4899 28.8588 3.47606C28.7969 3.46222 28.7384 3.43508 28.6869 3.39709C28.6355 3.3591 28.5922 3.31105 28.5597 3.25518C28.5273 3.19932 28.5063 3.13683 28.4982 3.07231C28.49 3.00779 28.4948 2.94246 28.5123 2.87993C28.5298 2.8174 28.5596 2.75915 28.5999 2.70893C28.6402 2.65871 28.6901 2.61742 28.7465 2.5878C30.3709 1.57851 32.2275 1.03118 34.1258 1.00129C36.0241 0.971405 37.8961 1.46031 39.5499 2.41799C41.2038 3.37567 42.58 4.76765 43.5377 6.45136C44.4954 8.13508 45 10.05 45 12C45 13.95 44.4954 15.8649 43.5377 17.5486C42.58 19.2324 41.2038 20.6243 39.5499 21.582C37.8961 22.5397 36.0241 23.0286 34.1258 22.9987C32.2275 22.9688 30.3709 22.4209 28.7465 21.4116C28.6947 21.3802 28.6495 21.3388 28.6134 21.2893C28.5774 21.2398 28.5512 21.1835 28.5365 21.1236C28.5217 21.0637 28.5186 21.0013 28.5274 20.9402C28.5363 20.879 28.5568 20.8203 28.5879 20.7674C28.6181 20.7126 28.659 20.6645 28.708 20.6267C28.7569 20.5888 28.8129 20.5619 28.8724 20.5471C28.932 20.5323 28.9939 20.5299 29.0543 20.5406C29.1147 20.5513 29.1723 20.575 29.2236 20.6094C31.2194 21.833 33.5723 22.2917 35.8657 21.9044C38.1592 21.5172 40.2453 20.3087 41.7546 18.4933C43.2596 16.6828 44.0865 14.3806 44.0865 12C44.0865 9.61944 43.2596 7.31656 41.7546 5.50611C40.244 3.69114 38.1564 2.48422 35.8621 2.09914C33.5677 1.71407 31.2147 2.17575 29.2201 3.40244ZM33.9311 12.8022C33.8704 12.7974 33.8112 12.7805 33.757 12.7523C33.7027 12.724 33.6545 12.6851 33.6149 12.6377C33.5753 12.5903 33.5452 12.5356 33.5263 12.4762C33.5074 12.4168 33.5002 12.3538 33.5048 12.2915C33.5169 12.1673 33.5749 12.0524 33.667 11.9709C33.7591 11.8894 33.8783 11.8477 33.9997 11.8539C34.3494 11.8825 34.7011 11.8403 35.0348 11.7292C35.3685 11.6182 35.6777 11.4405 35.9447 11.2067C36.2116 10.973 36.4311 10.6875 36.5906 10.3666C36.7501 10.0457 36.8465 9.69616 36.8743 9.33701C36.8743 8.04804 35.6324 7.11162 33.886 7.11162H32.5648C32.4425 7.11067 32.3255 7.06019 32.2389 6.97149C32.1523 6.88279 32.103 6.7628 32.1018 6.63721C32.1015 6.57474 32.1133 6.51269 32.1365 6.45493C32.1596 6.39716 32.1937 6.34467 32.2368 6.30055C32.2798 6.25643 32.331 6.22148 32.3873 6.19783C32.4436 6.17418 32.504 6.16232 32.5648 6.1628H33.8836C36.0905 6.1628 37.7979 7.43977 37.7967 9.37323C37.764 9.85801 37.6378 10.3314 37.4254 10.7656C37.213 11.1998 36.9186 11.5863 36.5594 11.9026C36.2003 12.2225 35.7834 12.4667 35.3324 12.6211C34.8814 12.7755 34.4052 12.8368 33.9311 12.8022ZM33.6753 15.3559C33.6145 15.3564 33.5541 15.3445 33.4978 15.3209C33.4415 15.2972 33.3904 15.2623 33.3473 15.2181C33.3042 15.174 33.2702 15.1215 33.247 15.0638C33.2238 15.006 33.2121 14.944 33.2124 14.8815C33.2136 14.7559 33.2628 14.6359 33.3494 14.5472C33.436 14.4585 33.553 14.4086 33.6753 14.4077H36.1474C36.2697 14.4086 36.3868 14.4585 36.4733 14.5472C36.5599 14.6359 36.6091 14.7559 36.6103 14.8815C36.6107 14.944 36.5989 15.006 36.5757 15.0638C36.5526 15.1215 36.5184 15.174 36.4754 15.2181C36.4323 15.2623 36.3811 15.2972 36.3248 15.3209C36.2685 15.3445 36.2083 15.3564 36.1474 15.3559H33.6753Z" fill="#658DF7" stroke="#658DF7"/>
<path opacity="0.7" fill-rule="evenodd" clip-rule="evenodd" d="M17.9077 3.40244C17.8556 3.43937 17.7966 3.46526 17.7345 3.47784C17.6723 3.49043 17.6083 3.4899 17.5464 3.47606C17.4845 3.46222 17.4261 3.43508 17.3747 3.39709C17.3232 3.3591 17.2799 3.31105 17.2475 3.25518C17.215 3.19932 17.194 3.13683 17.1858 3.07231C17.1777 3.00779 17.1825 2.94246 17.2 2.87993C17.2175 2.8174 17.2473 2.75915 17.2876 2.70893C17.3279 2.65871 17.3778 2.61742 17.4342 2.5878C19.0587 1.57851 20.9151 1.03118 22.8135 1.00129C24.7118 0.971405 26.5838 1.46031 28.2376 2.41799C29.8914 3.37567 31.2677 4.76765 32.2253 6.45136C33.183 8.13508 33.6877 10.05 33.6877 12C33.6877 13.95 33.183 15.8649 32.2253 17.5486C31.2677 19.2324 29.8914 20.6243 28.2376 21.582C26.5838 22.5397 24.7118 23.0286 22.8135 22.9987C20.9151 22.9688 19.0587 22.4209 17.4342 21.4116C17.3824 21.3802 17.3371 21.3388 17.3011 21.2893C17.265 21.2398 17.2389 21.1835 17.2241 21.1236C17.2094 21.0637 17.2064 21.0013 17.2152 20.9402C17.224 20.879 17.2445 20.8203 17.2755 20.7674C17.3057 20.7127 17.3464 20.6645 17.3952 20.6267C17.4441 20.5888 17.5 20.5619 17.5595 20.5471C17.619 20.5323 17.6808 20.5299 17.7411 20.5406C17.8014 20.5513 17.8589 20.575 17.9101 20.6094C19.9058 21.8333 22.2588 22.2917 24.5523 21.9044C26.8459 21.5172 28.9319 20.3089 30.4411 18.4933C31.9461 16.6828 32.773 14.3806 32.773 12C32.773 9.61944 31.9461 7.31656 30.4411 5.50611C28.9305 3.69144 26.8432 2.4848 24.5491 2.09974C22.2549 1.71468 19.9022 2.17608 17.9077 3.40244ZM22.6199 12.8022C22.4973 12.7925 22.3835 12.7334 22.3033 12.6377C22.2232 12.5419 22.1834 12.4174 22.1925 12.2915C22.2045 12.167 22.2628 12.0524 22.3552 11.9709C22.4475 11.8894 22.567 11.8474 22.6886 11.8539C23.0383 11.8825 23.39 11.8403 23.7237 11.7292C24.0574 11.6182 24.3665 11.4405 24.6335 11.2067C24.9004 10.973 25.1199 10.6875 25.2794 10.3666C25.4389 10.0457 25.5354 9.69616 25.5632 9.33701C25.5632 8.04804 24.3212 7.11162 22.5749 7.11162H21.2524C21.1301 7.11067 21.0131 7.06019 20.9265 6.97149C20.8399 6.88279 20.7908 6.7628 20.7895 6.63721C20.7892 6.57474 20.801 6.51269 20.8241 6.45493C20.8473 6.39716 20.8814 6.34467 20.9244 6.30055C20.9675 6.25643 21.0187 6.22148 21.075 6.19783C21.1313 6.17418 21.1916 6.16232 21.2524 6.1628H22.5749C24.7806 6.1628 26.4879 7.43977 26.482 9.37323C26.4498 9.858 26.3239 10.3313 26.1117 10.7656C25.8995 11.1998 25.6051 11.5864 25.2459 11.9026C24.5211 12.5479 23.5767 12.8712 22.6199 12.8022ZM22.363 15.3559C22.3021 15.3564 22.2419 15.3445 22.1856 15.3209C22.1293 15.2972 22.0781 15.2623 22.035 15.2181C21.992 15.174 21.9578 15.1215 21.9347 15.0638C21.9115 15.006 21.8997 14.944 21.9001 14.8815C21.9013 14.7559 21.9505 14.6359 22.0371 14.5472C22.1236 14.4585 22.2407 14.4086 22.363 14.4077H24.8351C24.9574 14.4086 25.0744 14.4585 25.161 14.5472C25.2476 14.6359 25.2968 14.7559 25.298 14.8815C25.2983 14.944 25.2866 15.006 25.2634 15.0638C25.2402 15.1215 25.2062 15.174 25.1631 15.2181C25.12 15.2623 25.0688 15.2972 25.0125 15.3209C24.9562 15.3445 24.8959 15.3564 24.8351 15.3559H22.363Z" fill="#658DF7" stroke="#658DF7"/>
<path fill-rule="evenodd" clip-rule="evenodd" d="M11.6461 22.9799C9.53358 22.9708 7.471 22.3193 5.71878 21.1072C3.96656 19.8951 2.60326 18.1768 1.80097 16.1696C0.998679 14.1623 0.793358 11.9558 1.21094 9.82885C1.62853 7.70188 2.65025 5.7501 4.1472 4.21906C5.64416 2.68802 7.54921 1.64649 9.62185 1.22654C11.6945 0.80658 13.8418 1.02704 15.7927 1.85948C17.7437 2.69191 19.4108 4.09881 20.5836 5.90354C21.7563 7.70827 22.3822 9.82984 22.3823 11.9996C22.3796 13.4447 22.0998 14.8747 21.5588 16.2087C21.0177 17.5428 20.2261 18.7545 19.2291 19.7742C18.2321 20.7939 17.0493 21.6016 15.7482 22.1516C14.447 22.7017 13.0532 22.9833 11.6461 22.9799ZM11.6461 22.0317C13.5762 22.0233 15.4606 21.4273 17.0614 20.3199C18.6622 19.2125 19.9077 17.643 20.6406 15.8091C21.3736 13.9753 21.5611 11.9597 21.1796 10.0165C20.798 8.07326 19.8645 6.28935 18.4968 4.89059C17.1292 3.49184 15.3887 2.5406 13.4951 2.15695C11.6015 1.7733 9.63965 1.97473 7.85726 2.73527C6.07487 3.4958 4.55182 4.78137 3.48036 6.4302C2.4089 8.07903 1.83705 10.0173 1.83703 11.9996C1.83952 13.3199 2.09524 14.6266 2.58958 15.8454C3.08392 17.0641 3.80718 18.1711 4.71808 19.1027C5.62899 20.0343 6.70972 20.7721 7.89845 21.2747C9.08717 21.7772 10.3607 22.0347 11.6461 22.0317ZM11.2293 12.8018C11.1686 12.7972 11.1093 12.7807 11.055 12.7525C11.0006 12.7243 10.9522 12.6853 10.9125 12.6379C10.8728 12.5905 10.8425 12.5353 10.8236 12.4758C10.8046 12.4164 10.7973 12.3535 10.802 12.2911C10.814 12.1669 10.8721 12.052 10.9642 11.9705C11.0563 11.889 11.1754 11.8473 11.2968 11.8536C12.0122 11.9126 12.7218 11.6824 13.2746 11.2123C13.8274 10.7422 14.1798 10.0695 14.2567 9.33663C14.2567 8.04766 13.0148 7.11124 11.2697 7.11124H9.77548V14.4073H13.5298C13.6521 14.4082 13.7692 14.4581 13.8557 14.5468C13.9423 14.6355 13.9915 14.7555 13.9927 14.8811C13.9931 14.9436 13.9813 15.0056 13.9581 15.0634C13.935 15.1212 13.9008 15.1736 13.8578 15.2178C13.8147 15.2619 13.7635 15.2968 13.7072 15.3205C13.6509 15.3441 13.5907 15.356 13.5298 15.3555H9.77548V16.7176C9.77548 16.8437 9.72673 16.9645 9.63991 17.0537C9.5531 17.1428 9.43534 17.1932 9.31256 17.1932C9.18979 17.1932 9.07203 17.1428 8.98521 17.0537C8.89839 16.9645 8.84965 16.8437 8.84965 16.7176V15.3555H8.5856C8.52477 15.356 8.46449 15.3441 8.40819 15.3205C8.35189 15.2968 8.30066 15.2619 8.25759 15.2178C8.21453 15.1736 8.18046 15.1212 8.15729 15.0634C8.13413 15.0056 8.12236 14.9436 8.12268 14.8811C8.12392 14.7555 8.17311 14.6355 8.25969 14.5468C8.34627 14.4581 8.46331 14.4082 8.5856 14.4073H8.84965V7.09877C8.84918 6.97567 8.87243 6.85396 8.91808 6.74014C8.96373 6.62632 9.03082 6.52259 9.11557 6.43554C9.20032 6.3485 9.30103 6.27996 9.41185 6.23307C9.52267 6.18619 9.64139 6.16193 9.76124 6.16242H11.2697C13.4754 6.16242 15.1826 7.43911 15.1767 9.38472C15.084 10.3711 14.619 11.2814 13.8812 11.9201C13.1435 12.5587 12.1916 12.875 11.2293 12.8018Z" fill="#658DF7" stroke="#658DF7"/>
</svg>
