<svg width="18" height="18" viewBox="0 0 18 18" fill="none" xmlns="http://www.w3.org/2000/svg">
<path fill-rule="evenodd" clip-rule="evenodd" d="M5.16251 1.85332C5.63644 2.6237 6.69951 4.48159 6.85322 4.82056C6.98465 5.04525 7.026 5.3116 6.96892 5.5657C6.91185 5.81981 6.76063 6.04268 6.54582 6.18923C6.12799 6.44318 5.73734 6.73966 5.38016 7.07391C5.20084 7.41672 5.03435 8.74302 7.00692 10.7113C8.97949 12.6796 10.5678 13.0777 10.9776 12.6373C11.3875 12.1969 11.631 11.7103 11.8872 11.4535C12.0742 11.25 12.3302 11.124 12.6052 11.1003C12.8801 11.0765 13.154 11.1567 13.3729 11.3251C14.4584 11.9 15.5067 12.5433 16.5112 13.251C17.1388 13.7363 17.6127 14.0894 17.3821 14.7212C17.1703 15.3516 16.8202 15.9263 16.3575 16.4031C15.9803 16.7788 15.5162 17.055 15.0065 17.2069C14.4969 17.3588 13.9577 17.3817 13.437 17.2737C11.953 16.9084 10.5441 16.2857 9.27412 15.4337C7.92633 14.467 6.67383 13.3732 5.53386 12.1673C4.49149 11.141 3.53609 10.0296 2.6775 8.84448C1.83392 7.43055 1.22414 5.88913 0.871561 4.27998C0.753625 3.85519 0.74217 3.40778 0.838257 2.97749C0.934343 2.5472 1.13491 2.14737 1.42226 1.81351C1.93479 1.28076 2.58774 0.904959 3.30513 0.72986C3.80468 0.598896 4.36836 0.598896 5.16251 1.85332ZM9.12042 2.05747V0.668224C11.3286 0.668224 13.4462 1.54751 15.0076 3.11263C16.569 4.67776 17.4462 6.80053 17.4462 9.01395H16.0629C16.0619 7.16884 15.33 5.39964 14.0282 4.09519C12.7264 2.79075 10.9611 2.05781 9.12042 2.05747ZM14.6666 9.01266H13.2833C13.2823 7.90638 12.8433 6.84574 12.0628 6.06361C11.2823 5.28147 10.2241 4.84177 9.12042 4.84109V3.44926C9.8491 3.44959 10.5705 3.59382 11.2436 3.87365C11.9167 4.15349 12.5283 4.56346 13.0433 5.08018C13.5583 5.59691 13.9667 6.21029 14.2452 6.88524C14.5238 7.56019 14.667 8.28352 14.6666 9.01395V9.01266Z" fill="#7B519D"/>
</svg>
