<svg width="21" height="21" viewBox="0 0 21 21" fill="none" xmlns="http://www.w3.org/2000/svg">
<path fill-rule="evenodd" clip-rule="evenodd" d="M10.7748 20.3827C8.90826 20.3779 7.08164 19.8413 5.50816 18.8355L0.875122 20.3827L2.41952 15.7399C1.256 13.8796 0.742579 11.6847 0.960197 9.50033C1.17782 7.31593 2.11413 5.26593 3.62169 3.6728C5.12925 2.07967 7.1225 1.03377 9.2882 0.699568C11.4539 0.365371 13.6691 0.76186 15.5854 1.82666C17.5016 2.89145 19.0101 4.56416 19.8737 6.5817C20.7374 8.59925 20.9072 10.8471 20.3563 12.9719C19.8055 15.0967 18.5654 16.9777 16.8309 18.3193C15.0964 19.6608 12.966 20.3866 10.7748 20.3827ZM12.9263 11.9671C13.5846 12.1827 14.2545 12.3615 14.9326 12.5027C15.0039 12.5132 15.0724 12.538 15.1339 12.5757C15.1954 12.6133 15.2488 12.663 15.2907 12.7218C15.3326 12.7806 15.3622 12.8472 15.3778 12.9177C15.3934 12.9882 15.3946 13.0611 15.3814 13.1321V13.5063C15.3879 13.6423 15.3627 13.7778 15.3077 13.9023C15.2527 14.0267 15.1694 14.1366 15.0646 14.2231C14.7393 14.5539 14.354 14.8196 13.9295 15.0059C13.3031 15.0805 12.668 15.0252 12.0639 14.8432C11.4599 14.6611 10.8997 14.3564 10.4183 13.948C9.79741 13.5313 9.2184 13.0553 8.68929 12.5265C8.16235 11.9933 7.68508 11.413 7.26364 10.7928C6.85917 10.3103 6.55794 9.74977 6.37857 9.14585C6.1992 8.54192 6.14562 7.9075 6.22099 7.28195C6.40727 6.85896 6.67143 6.47496 6.99971 6.15002C7.08335 6.04284 7.19222 5.95821 7.31665 5.90373C7.44108 5.84925 7.57721 5.82664 7.71254 5.83795H8.09521C8.23959 5.81797 8.38608 5.85616 8.50238 5.94417C8.61868 6.03217 8.69525 6.16277 8.71555 6.30736C8.91355 7.09021 9.05878 7.65618 9.25678 8.29092C9.33597 8.55539 9.24368 8.61888 9.03249 8.77756C8.90049 8.87938 8.79489 8.95343 8.68929 9.03277C8.62809 9.05933 8.57309 9.09851 8.528 9.14774C8.48291 9.19698 8.44862 9.25516 8.42746 9.31853C8.40629 9.38189 8.39879 9.449 8.40522 9.5155C8.41165 9.58201 8.43192 9.64641 8.46484 9.70453C8.80193 10.3545 9.23337 10.9508 9.74515 11.4739C10.2665 11.9876 10.8631 12.4188 11.514 12.7526C11.5723 12.785 11.6365 12.805 11.7028 12.8113C11.7692 12.8175 11.8361 12.8099 11.8994 12.7889C11.9627 12.7679 12.021 12.7339 12.0705 12.6892C12.12 12.6445 12.1596 12.59 12.187 12.5291C12.2662 12.422 12.3323 12.3228 12.4379 12.184C12.4545 12.1365 12.4805 12.093 12.5143 12.0558C12.548 12.0186 12.5888 11.9885 12.6343 11.9674C12.6799 11.9463 12.7292 11.9346 12.7793 11.933C12.8295 11.9314 12.8795 11.9398 12.9263 11.9579V11.9671Z" fill="#65BC54"/>
</svg>
